# File created by Blade
# Date/Time:  Wed Apr 08 14:10:35 2015
# Frame Rate: 120.000 fps
#------------------------------------------------------
:FULLY-SPECIFIED
:DEGREES
906
root 1.335513 32.963010 14.471062 9.782674 2.639617 -1.889925
Spine -14.063078 -6.679745 1.578204
Head 12.760044 -2.963908 -0.624209
LeftShoulder -22.802100 41.793894 18.811107
LeftArm 59.209844 -58.045094 -61.413657
LeftForeArm 11.039352 -0.000000 -1.762322
LeftHand 1.696228 0.000000 4.283759
LeftHandThumb1 -26.253704 0.000000 33.147579
RightShoulder -7.670502 2.488018 -31.162724
RightArm 12.429311 14.476276 39.474893
RightForeArm -15.689792 -0.000000 1.637966
RightHand 0.785094 -0.000000 0.998223
RightHandThumb1 -24.326973 -0.000000 -32.862282
LeftUpLeg -4.537106 -7.509382 1.981190
LeftLeg -1.939894 -0.000000 0.000000
LeftFoot -7.123538 7.937318 -17.427588
LeftToeBase -6.374870 -0.000000 0.000000
RightUpLeg -3.469718 5.620930 4.371661
RightLeg -2.955697 -0.000000 0.000000
RightFoot -6.120978 -15.577053 6.212193
RightToeBase -3.780128 -0.000000 0.000000
907
root 1.338346 32.962214 14.470574 9.786616 2.662903 -1.896521
Spine -14.079550 -6.703272 1.578919
Head 12.760750 -2.948631 -0.615185
LeftShoulder -22.811318 41.850095 18.797519
LeftArm 59.321781 -58.003758 -61.531263
LeftForeArm 11.017963 0.000000 -1.799367
LeftHand 1.621833 0.000000 4.183085
LeftHandThumb1 -26.253704 0.000000 33.147579
RightShoulder -7.635656 2.494816 -31.152647
RightArm 12.394915 14.502002 39.532803
RightForeArm -15.717977 -0.000000 1.614540
RightHand 0.806587 0.000000 0.988989
RightHandThumb1 -24.326973 -0.000000 -32.862282
LeftUpLeg -4.520571 -7.550135 1.987892
LeftLeg -1.988154 -0.000000 0.000000
LeftFoot -7.119267 7.970665 -17.411141
LeftToeBase -6.328237 -0.000000 0.000000
RightUpLeg -3.475991 5.611956 4.379486
RightLeg -2.952028 -0.000000 0.000000
RightFoot -6.114516 -15.604740 6.191135
RightToeBase -3.841648 -0.000000 0.000000
908
root 1.340335 32.961782 14.470207 9.785697 2.673914 -1.901136
Spine -14.086620 -6.706129 1.567992
Head 12.744199 -2.933689 -0.595447
LeftShoulder -22.814613 41.902017 18.787071
LeftArm 59.407935 -57.955718 -61.615988
LeftForeArm 10.995953 -0.000000 -1.856370
LeftHand 1.607135 -0.000000 4.141373
LeftHandThumb1 -26.253704 0.000000 33.147579
RightShoulder -7.630261 2.499683 -31.135910
RightArm 12.390582 14.494450 39.596377
RightForeArm -15.686977 -0.000000 1.567997
RightHand 0.969936 0.000000 0.849665
RightHandThumb1 -24.326973 -0.000000 -32.862282
LeftUpLeg -4.505201 -7.537100 1.988954
LeftLeg -2.023233 -0.000000 0.000000
LeftFoot -7.101371 7.966964 -17.407535
LeftToeBase -6.358404 -0.000000 0.000000
RightUpLeg -3.476090 5.609660 4.383581
RightLeg -2.950679 -0.000000 0.000000
RightFoot -6.116859 -15.620070 6.150453
RightToeBase -3.816549 -0.000000 0.000000
909
root 1.343282 32.961222 14.470318 9.787882 2.689620 -1.899975
Spine -14.099177 -6.723948 1.558729
Head 12.729561 -2.908145 -0.573817
LeftShoulder -22.797446 41.916985 18.804809
LeftArm 59.421242 -57.883816 -61.646468
LeftForeArm 10.951695 -0.000000 -1.927658
LeftHand 1.660960 -0.000000 4.218792
LeftHandThumb1 -26.253704 0.000000 33.147579
RightShoulder -7.617100 2.496850 -31.111171
RightArm 12.407721 14.497943 39.644311
RightForeArm -15.684613 -0.000000 1.497539
RightHand 1.021600 -0.000000 0.958150
RightHandThumb1 -24.326973 -0.000000 -32.862282
LeftUpLeg -4.494799 -7.523920 1.983592
LeftLeg -2.050120 -0.000000 0.000000
LeftFoot -7.086334 7.920499 -17.410040
LeftToeBase -6.264164 -0.000000 0.000000
RightUpLeg -3.484938 5.578932 4.383882
RightLeg -2.937330 -0.000000 0.000000
RightFoot -6.144103 -15.616864 6.165435
RightToeBase -3.785160 -0.000000 0.000000
910
root 1.345900 32.960972 14.469649 9.790659 2.711812 -1.899835
Spine -14.111714 -6.747359 1.556930
Head 12.720208 -2.888550 -0.582764
LeftShoulder -22.771375 41.924672 18.802055
LeftArm 59.435742 -57.852705 -61.673570
LeftForeArm 10.844459 0.000000 -2.012895
LeftHand 1.851852 -0.000000 3.879974
LeftHandThumb1 -26.253704 0.000000 33.147579
RightShoulder -7.582471 2.513654 -31.091788
RightArm 12.379215 14.474073 39.675274
RightForeArm -15.618438 -0.000000 1.490849
RightHand 0.815525 -0.000000 0.984112
RightHandThumb1 -24.326973 -0.000000 -32.862282
LeftUpLeg -4.486377 -7.534734 1.986826
LeftLeg -2.080686 -0.000000 0.000000
LeftFoot -7.061142 7.901327 -17.452212
LeftToeBase -6.305966 -0.000000 0.000000
RightUpLeg -3.485843 5.572166 4.381974
RightLeg -2.942319 -0.000000 0.000000
RightFoot -6.135067 -15.637514 6.134440
RightToeBase -3.787413 -0.000000 0.000000
911
root 1.348035 32.960828 14.467171 9.811945 2.728862 -1.903320
Spine -14.142011 -6.758238 1.550137
Head 12.710824 -2.881196 -0.566282
LeftShoulder -22.754675 41.948087 18.812753
LeftArm 59.447931 -57.768752 -61.674103
LeftForeArm 10.755564 0.000000 -2.122632
LeftHand 1.679556 0.000000 3.946849
LeftHandThumb1 -26.253704 0.000000 33.147579
RightShoulder -7.595625 2.490914 -31.088326
RightArm 12.444222 14.474115 39.772785
RightForeArm -15.633849 -0.000000 1.403945
RightHand 0.936885 -0.000000 0.902981
RightHandThumb1 -24.326973 -0.000000 -32.862282
LeftUpLeg -4.507656 -7.529567 1.993795
LeftLeg -2.093799 -0.000000 0.000000
LeftFoot -7.045307 7.869688 -17.451774
LeftToeBase -6.317808 -0.000000 0.000000
RightUpLeg -3.517532 5.582907 4.380680
RightLeg -2.929190 -0.000000 0.000000
RightFoot -6.143678 -15.665218 6.145088
RightToeBase -3.803247 -0.000000 0.000000
912
root 1.350094 32.961202 14.466554 9.824131 2.748463 -1.910318
Spine -14.171134 -6.781610 1.563637
Head 12.714628 -2.869014 -0.593711
LeftShoulder -22.733602 41.963886 18.808171
LeftArm 59.522741 -57.753946 -61.775440
LeftForeArm 10.795462 -0.000000 -2.202788
LeftHand 1.803956 -0.000000 3.866996
LeftHandThumb1 -26.253704 0.000000 33.147579
RightShoulder -7.578379 2.513638 -31.097324
RightArm 12.447028 14.419469 39.834456
RightForeArm -15.617176 -0.000000 1.331207
RightHand 1.030624 -0.000000 0.931787
RightHandThumb1 -24.326973 -0.000000 -32.862282
LeftUpLeg -4.514045 -7.511720 1.999609
LeftLeg -2.112271 -0.000000 0.000000
LeftFoot -7.025137 7.841384 -17.454126
LeftToeBase -6.293284 -0.000000 0.000000
RightUpLeg -3.539787 5.541402 4.390939
RightLeg -2.914224 -0.000000 0.000000
RightFoot -6.144147 -15.649138 6.135579
RightToeBase -3.805182 -0.000000 0.000000
913
root 1.351860 32.961470 14.464424 9.839958 2.764189 -1.916344
Spine -14.194485 -6.789791 1.564598
Head 12.701575 -2.856605 -0.599843
LeftShoulder -22.689124 41.938076 18.834734
LeftArm 59.472960 -57.678027 -61.729521
LeftForeArm 10.686100 0.000000 -2.313944
LeftHand 1.659400 -0.000000 3.805635
LeftHandThumb1 -26.253704 0.000000 33.147579
RightShoulder -7.577099 2.504340 -31.076935
RightArm 12.469173 14.384334 39.866966
RightForeArm -15.586587 0.000000 1.279403
RightHand 1.031687 -0.000000 0.918429
RightHandThumb1 -24.326973 -0.000000 -32.862282
LeftUpLeg -4.528956 -7.506620 2.010069
LeftLeg -2.127166 -0.000000 0.000000
LeftFoot -7.002900 7.802056 -17.453227
LeftToeBase -6.325216 -0.000000 0.000000
RightUpLeg -3.557706 5.533520 4.395914
RightLeg -2.921543 -0.000000 0.000000
RightFoot -6.131227 -15.674574 6.117796
RightToeBase -3.806200 -0.000000 0.000000
914
root 1.353647 32.961265 14.462738 9.850979 2.778686 -1.919838
Spine -14.216943 -6.807365 1.567297
Head 12.692128 -2.862922 -0.607034
LeftShoulder -22.661013 41.936629 18.852250
LeftArm 59.542619 -57.660396 -61.836838
LeftForeArm 10.711528 0.000000 -2.405594
LeftHand 1.923365 -0.000000 3.575240
LeftHandThumb1 -26.253704 0.000000 33.147579
RightShoulder -7.548672 2.492739 -31.062726
RightArm 12.467972 14.365758 39.890217
RightForeArm -15.541868 -0.000000 1.252055
RightHand 0.967703 0.000000 1.017497
RightHandThumb1 -24.326973 -0.000000 -32.862282
LeftUpLeg -4.539374 -7.499870 2.015378
LeftLeg -2.137018 -0.000000 0.000000
LeftFoot -6.984161 7.770390 -17.464926
LeftToeBase -6.348738 -0.000000 0.000000
RightUpLeg -3.580917 5.472012 4.410602
RightLeg -2.929065 -0.000000 0.000000
RightFoot -5.897546 -15.736560 5.777600
RightToeBase -4.480384 -0.000000 0.000000
915
root 1.355815 32.961845 14.460851 9.870572 2.794578 -1.935095
Spine -14.244044 -6.810485 1.584057
Head 12.659250 -2.880188 -0.611434
LeftShoulder -22.648138 41.925352 18.853843
LeftArm 59.605569 -57.608446 -61.910095
LeftForeArm 10.720855 -0.000000 -2.472458
LeftHand 1.867500 -0.000000 3.593548
LeftHandThumb1 -26.253704 0.000000 33.147579
RightShoulder -7.544216 2.481704 -31.048938
RightArm 12.473284 14.364435 39.914979
RightForeArm -15.478029 -0.000000 1.231305
RightHand 0.904248 -0.000000 1.135968
RightHandThumb1 -24.326973 -0.000000 -32.862282
LeftUpLeg -4.554757 -7.508291 2.033572
LeftLeg -2.159911 -0.000000 0.000000
LeftFoot -6.959510 7.763945 -17.482565
LeftToeBase -6.371043 -0.000000 0.000000
RightUpLeg -3.613348 5.452484 4.421476
RightLeg -2.885811 -0.000000 0.000000
RightFoot -6.123597 -15.654120 6.065209
RightToeBase -3.851187 -0.000000 0.000000
916
root 1.357619 32.961996 14.458912 9.882717 2.802432 -1.944653
Spine -14.265641 -6.815095 1.585867
Head 12.649296 -2.878949 -0.592927
LeftShoulder -22.628507 41.934025 18.875106
LeftArm 59.691355 -57.568348 -62.027385
LeftForeArm 10.666281 -0.000000 -2.523582
LeftHand 1.807045 0.000000 3.514824
LeftHandThumb1 -26.253704 0.000000 33.147579
RightShoulder -7.499876 2.478175 -31.019241
RightArm 12.428057 14.395741 39.914058
RightForeArm -15.435520 -0.000000 1.234091
RightHand 0.852391 -0.000000 1.135728
RightHandThumb1 -24.326973 -0.000000 -32.862282
LeftUpLeg -4.567192 -7.491378 2.043603
LeftLeg -2.166487 -0.000000 0.000000
LeftFoot -6.955526 7.738922 -17.485369
LeftToeBase -6.296234 -0.000000 0.000000
RightUpLeg -3.630949 5.436865 4.430713
RightLeg -2.881728 -0.000000 0.000000
RightFoot -6.150922 -15.652273 6.099589
RightToeBase -3.758889 -0.000000 0.000000
